<svg width="50" height="50" viewBox="0 0 50 50" fill="none" xmlns="http://www.w3.org/2000/svg">
<path opacity="0.2" d="M17.9803 34.354C18.6716 36.3165 19.7895 38.1013 21.2536 39.5797C22.7176 41.0582 24.4913 42.1936 26.4469 42.9041C28.4025 43.6147 30.4914 43.8826 32.5631 43.6888C34.6347 43.4949 36.6376 42.844 38.4274 41.7829L38.4274 41.7828L43.2843 43.1705C43.4852 43.2279 43.6979 43.2305 43.9002 43.1781C44.1025 43.1257 44.2871 43.0201 44.4349 42.8724C44.5826 42.7246 44.6882 42.54 44.7406 42.3377C44.7931 42.1354 44.7904 41.9227 44.733 41.7218L43.3453 36.8649L43.3454 36.8649C44.5784 34.7855 45.2547 32.4235 45.309 30.0066C45.3632 27.5897 44.7937 25.1997 43.6554 23.067C42.517 20.9343 40.8482 19.1311 38.81 17.8311C36.7718 16.5312 34.4329 15.7785 32.0191 15.6457L32.0196 15.6455C32.7633 17.7663 32.9883 20.0344 32.6757 22.26C32.3631 24.4856 31.522 26.604 30.2227 28.4378C28.9235 30.2717 27.2039 31.7677 25.2079 32.8006C23.2119 33.8336 20.9975 34.3734 18.75 34.375C18.4918 34.375 18.2352 34.3681 17.9803 34.3543V34.354Z" fill="white"/>
<path d="M6.65454 27.4899C4.90737 24.5446 4.2955 21.0628 4.93382 17.6982C5.57214 14.3337 7.41674 11.3179 10.1213 9.21721C12.8258 7.11648 16.2041 6.0753 19.622 6.28918C23.0398 6.50306 26.262 7.95729 28.6836 10.3788C31.1051 12.8003 32.5593 16.0225 32.7732 19.4404C32.9871 22.8582 31.946 26.2366 29.8452 28.9411C27.7445 31.6456 24.7287 33.4902 21.3642 34.1286C17.9997 34.7669 14.5179 34.1551 11.5726 32.4079L11.5726 32.4078L6.71568 33.7954C6.51474 33.8529 6.3021 33.8555 6.09979 33.8031C5.89749 33.7506 5.71288 33.6451 5.56511 33.4973C5.41733 33.3495 5.31176 33.1649 5.25934 32.9626C5.20692 32.7603 5.20955 32.5477 5.26696 32.3467L6.65466 27.4898L6.65454 27.4899Z" stroke="white" stroke-width="3" stroke-linecap="round" stroke-linejoin="round"/>
<path d="M17.9803 34.3538C18.6716 36.3163 19.7895 38.1011 21.2536 39.5796C22.7176 41.0581 24.4913 42.1935 26.4469 42.904C28.4025 43.6145 30.4914 43.8825 32.5631 43.6886C34.6347 43.4947 36.6376 42.8438 38.4274 41.7828L38.4274 41.7827L43.2843 43.1703C43.4852 43.2278 43.6979 43.2304 43.9002 43.178C44.1025 43.1255 44.2871 43.02 44.4349 42.8722C44.5826 42.7244 44.6882 42.5398 44.7406 42.3375C44.7931 42.1352 44.7904 41.9226 44.733 41.7216L43.3453 36.8647L43.3454 36.8648C44.5784 34.7854 45.2547 32.4233 45.309 30.0065C45.3632 27.5896 44.7937 25.1995 43.6554 23.0669C42.517 20.9342 40.8482 19.1309 38.81 17.831C36.7718 16.531 34.4329 15.7783 32.0191 15.6455" stroke="white" stroke-width="3" stroke-linecap="round" stroke-linejoin="round"/>
</svg>
