<svg width="32" height="32" viewBox="0 0 32 32" fill="none" xmlns="http://www.w3.org/2000/svg">
<path opacity="0.2" d="M9.74808 25.168L5.64348 28.6185C5.49771 28.741 5.31998 28.8194 5.1312 28.8444C4.94241 28.8694 4.75042 28.8399 4.57779 28.7595C4.40516 28.6791 4.25908 28.5511 4.15673 28.3905C4.05437 28.2299 4 28.0435 4 27.853V8.00006C4 7.73484 4.10536 7.48049 4.29289 7.29295C4.48043 7.10542 4.73478 7.00006 5 7.00006H27C27.2652 7.00006 27.5196 7.10542 27.7071 7.29295C27.8946 7.48049 28 7.73484 28 8.00006V24.0001C28 24.2653 27.8946 24.5196 27.7071 24.7072C27.5196 24.8947 27.2652 25.0001 27 25.0001H10.2089L9.74808 25.168Z" fill="white"/>
<path d="M9.66887 25.2346L5.64348 28.6185C5.49771 28.741 5.31998 28.8194 5.1312 28.8444C4.94241 28.8694 4.75042 28.8399 4.57779 28.7595C4.40516 28.6791 4.25908 28.5511 4.15673 28.3905C4.05437 28.2299 4 28.0435 4 27.853V8.00006C4 7.73484 4.10536 7.48049 4.29289 7.29295C4.48043 7.10542 4.73478 7.00006 5 7.00006H27C27.2652 7.00006 27.5196 7.10542 27.7071 7.29295C27.8946 7.48049 28 7.73484 28 8.00006V24.0001C28 24.2653 27.8946 24.5196 27.7071 24.7072C27.5196 24.8947 27.2652 25.0001 27 25.0001H10.3123C10.0769 25.0001 9.84907 25.0831 9.66887 25.2346Z" stroke="white" stroke-width="2" stroke-linecap="round" stroke-linejoin="round"/>
<path d="M16 17.5C16.8284 17.5 17.5 16.8284 17.5 16C17.5 15.1716 16.8284 14.5 16 14.5C15.1716 14.5 14.5 15.1716 14.5 16C14.5 16.8284 15.1716 17.5 16 17.5Z" fill="white"/>
<path d="M10 17.5C10.8284 17.5 11.5 16.8284 11.5 16C11.5 15.1716 10.8284 14.5 10 14.5C9.17157 14.5 8.5 15.1716 8.5 16C8.5 16.8284 9.17157 17.5 10 17.5Z" fill="white"/>
<path d="M22 17.5C22.8284 17.5 23.5 16.8284 23.5 16C23.5 15.1716 22.8284 14.5 22 14.5C21.1716 14.5 20.5 15.1716 20.5 16C20.5 16.8284 21.1716 17.5 22 17.5Z" fill="white"/>
</svg>
