<svg width="50" height="50" viewBox="0 0 50 50" fill="none" xmlns="http://www.w3.org/2000/svg">
<path opacity="0.2" d="M36.7188 18.7495C39.7391 18.7495 42.1875 16.3011 42.1875 13.2808C42.1875 10.2605 39.7391 7.81201 36.7188 7.81201C33.6984 7.81201 31.25 10.2605 31.25 13.2808C31.25 16.3011 33.6984 18.7495 36.7188 18.7495Z" fill="#5CE1E6"/>
<path d="M13.2789 31.25V29.6875C13.2789 28.4443 13.7728 27.2521 14.6518 26.373C15.5309 25.494 16.7231 25.0001 17.9663 25.0001L32.029 24.9999C33.2721 24.9999 34.4644 24.506 35.3434 23.627C36.2225 22.7479 36.7163 21.5557 36.7164 20.3125V18.75" stroke="#5CE1E6" stroke-width="3" stroke-linecap="round" stroke-linejoin="round"/>
<path d="M13.2789 18.75V31.25" stroke="#5CE1E6" stroke-width="3" stroke-linecap="round" stroke-linejoin="round"/>
<path d="M13.2812 42.1875C16.3016 42.1875 18.75 39.7391 18.75 36.7188C18.75 33.6984 16.3016 31.25 13.2812 31.25C10.2609 31.25 7.8125 33.6984 7.8125 36.7188C7.8125 39.7391 10.2609 42.1875 13.2812 42.1875Z" stroke="#5CE1E6" stroke-width="3" stroke-linecap="round" stroke-linejoin="round"/>
<path d="M36.7188 18.7495C39.7391 18.7495 42.1875 16.3011 42.1875 13.2808C42.1875 10.2605 39.7391 7.81201 36.7188 7.81201C33.6984 7.81201 31.25 10.2605 31.25 13.2808C31.25 16.3011 33.6984 18.7495 36.7188 18.7495Z" stroke="#5CE1E6" stroke-width="3" stroke-linecap="round" stroke-linejoin="round"/>
<path d="M13.2812 18.7495C16.3016 18.7495 18.75 16.3011 18.75 13.2808C18.75 10.2605 16.3016 7.81201 13.2812 7.81201C10.2609 7.81201 7.8125 10.2605 7.8125 13.2808C7.8125 16.3011 10.2609 18.7495 13.2812 18.7495Z" stroke="#5CE1E6" stroke-width="3" stroke-linecap="round" stroke-linejoin="round"/>
</svg>
