<svg width="160" height="32" viewBox="0 0 160 32" fill="none" xmlns="http://www.w3.org/2000/svg">
<path d="M29.8957 12.1764C29.7709 11.7844 29.5308 11.4392 29.2068 11.1857C28.8827 10.9322 28.4899 10.7823 28.0793 10.7555L20.6555 10.236L17.9016 3.30139C17.7526 2.91802 17.4912 2.5886 17.1518 2.35632C16.8123 2.12403 16.4106 1.9997 15.9993 1.99963H15.9973C15.5866 2.00037 15.1857 2.12501 14.847 2.35726C14.5083 2.58951 14.2476 2.91856 14.0989 3.30139L11.304 10.276L3.92114 10.7555C3.51063 10.7823 3.11773 10.9322 2.79371 11.1857C2.46969 11.4392 2.22959 11.7844 2.10473 12.1764C1.97302 12.5739 1.96406 13.0019 2.07902 13.4046C2.19398 13.8073 2.42753 14.1661 2.74926 14.4342L8.42895 19.235L6.7395 25.8805C6.62305 26.3281 6.64446 26.8005 6.80094 27.2358C6.95741 27.671 7.24165 28.0489 7.61645 28.3199C7.97831 28.5832 8.41104 28.7315 8.85832 28.7454C9.3056 28.7593 9.74672 28.6383 10.1243 28.3981L15.9836 24.6862C15.9914 24.6803 15.9993 24.6764 16.0168 24.6862L22.3215 28.6803C22.6638 28.899 23.0641 29.0093 23.4701 28.9967C23.8761 28.9842 24.2688 28.8494 24.5969 28.61C24.9365 28.3645 25.1941 28.0222 25.3359 27.6279C25.4778 27.2336 25.4973 26.8056 25.3918 26.4L23.5969 19.1403L29.2512 14.4342C29.5729 14.1661 29.8065 13.8073 29.9215 13.4046C30.0364 13.0019 30.0275 12.5739 29.8957 12.1764Z" fill="#FED02F"/>
<path d="M61.8957 12.1764C61.7709 11.7844 61.5308 11.4392 61.2068 11.1857C60.8827 10.9322 60.4899 10.7823 60.0793 10.7555L52.6555 10.236L49.9016 3.30139C49.7526 2.91802 49.4912 2.5886 49.1518 2.35632C48.8123 2.12403 48.4106 1.9997 47.9993 1.99963H47.9973C47.5866 2.00037 47.1857 2.12501 46.847 2.35726C46.5083 2.58951 46.2476 2.91856 46.0989 3.30139L43.304 10.276L35.9211 10.7555C35.5106 10.7823 35.1177 10.9322 34.7937 11.1857C34.4697 11.4392 34.2296 11.7844 34.1047 12.1764C33.973 12.5739 33.9641 13.0019 34.079 13.4046C34.194 13.8073 34.4275 14.1661 34.7493 14.4342L40.429 19.235L38.7395 25.8805C38.623 26.3281 38.6445 26.8005 38.8009 27.2358C38.9574 27.671 39.2416 28.0489 39.6164 28.3199C39.9783 28.5832 40.411 28.7315 40.8583 28.7454C41.3056 28.7593 41.7467 28.6383 42.1243 28.3981L47.9836 24.6862C47.9914 24.6803 47.9993 24.6764 48.0168 24.6862L54.3215 28.6803C54.6638 28.899 55.0641 29.0093 55.4701 28.9967C55.8761 28.9842 56.2688 28.8494 56.5969 28.61C56.9365 28.3645 57.1941 28.0222 57.3359 27.6279C57.4778 27.2336 57.4973 26.8056 57.3918 26.4L55.5969 19.1403L61.2512 14.4342C61.5729 14.1661 61.8065 13.8073 61.9215 13.4046C62.0364 13.0019 62.0275 12.5739 61.8957 12.1764Z" fill="#FED02F"/>
<path d="M93.8957 12.1764C93.7709 11.7844 93.5308 11.4392 93.2068 11.1857C92.8827 10.9322 92.4899 10.7823 92.0793 10.7555L84.6555 10.236L81.9016 3.30139C81.7526 2.91802 81.4912 2.5886 81.1518 2.35632C80.8123 2.12403 80.4106 1.9997 79.9993 1.99963H79.9973C79.5866 2.00037 79.1857 2.12501 78.847 2.35726C78.5083 2.58951 78.2476 2.91856 78.0989 3.30139L75.304 10.276L67.9211 10.7555C67.5106 10.7823 67.1177 10.9322 66.7937 11.1857C66.4697 11.4392 66.2296 11.7844 66.1047 12.1764C65.973 12.5739 65.9641 13.0019 66.079 13.4046C66.194 13.8073 66.4275 14.1661 66.7493 14.4342L72.429 19.235L70.7395 25.8805C70.623 26.3281 70.6445 26.8005 70.8009 27.2358C70.9574 27.671 71.2416 28.0489 71.6164 28.3199C71.9783 28.5832 72.411 28.7315 72.8583 28.7454C73.3056 28.7593 73.7467 28.6383 74.1243 28.3981L79.9836 24.6862C79.9914 24.6803 79.9993 24.6764 80.0168 24.6862L86.3215 28.6803C86.6638 28.899 87.0641 29.0093 87.4701 28.9967C87.8761 28.9842 88.2688 28.8494 88.5969 28.61C88.9365 28.3645 89.1941 28.0222 89.3359 27.6279C89.4778 27.2336 89.4973 26.8056 89.3918 26.4L87.5969 19.1403L93.2512 14.4342C93.5729 14.1661 93.8065 13.8073 93.9215 13.4046C94.0364 13.0019 94.0275 12.5739 93.8957 12.1764Z" fill="#FED02F"/>
<path d="M125.897 12.1768C125.772 11.7848 125.532 11.4395 125.208 11.1861C124.884 10.9326 124.491 10.7827 124.08 10.7559L116.657 10.2363L113.903 3.30176C113.754 2.91838 113.492 2.58897 113.153 2.35668C112.813 2.12439 112.412 2.00007 112 2H111.998C111.588 2.00073 111.187 2.12537 110.848 2.35763C110.509 2.58988 110.249 2.91893 110.1 3.30176L107.305 10.2764L99.9222 10.7559C99.5117 10.7827 99.1188 10.9326 98.7948 11.1861C98.4708 11.4395 98.2307 11.7848 98.1058 12.1768C97.9741 12.5743 97.9651 13.0023 98.0801 13.405C98.1951 13.8077 98.4286 14.1665 98.7503 14.4346L104.43 19.2354L102.741 25.8809C102.624 26.3285 102.646 26.8009 102.802 27.2361C102.958 27.6714 103.243 28.0493 103.618 28.3203C103.979 28.5836 104.412 28.7318 104.859 28.7458C105.307 28.7597 105.748 28.6387 106.125 28.3984L111.985 24.6865C111.993 24.6807 112 24.6768 112.018 24.6865L118.323 28.6807C118.665 28.8994 119.065 29.0096 119.471 28.9971C119.877 28.9845 120.27 28.8498 120.598 28.6104C120.938 28.3649 121.195 28.0226 121.337 27.6282C121.479 27.2339 121.498 26.806 121.393 26.4004L119.598 19.1406L125.252 14.4346C125.574 14.1665 125.808 13.8077 125.923 13.405C126.038 13.0023 126.029 12.5743 125.897 12.1768Z" fill="#FED02F"/>
<path d="M157.896 12.1764C157.771 11.7844 157.531 11.4392 157.207 11.1857C156.883 10.9322 156.49 10.7823 156.079 10.7555L148.656 10.236L145.902 3.30139C145.753 2.91802 145.491 2.5886 145.152 2.35632C144.812 2.12403 144.411 1.9997 143.999 1.99963H143.997C143.587 2.00037 143.186 2.12501 142.847 2.35726C142.508 2.58951 142.248 2.91856 142.099 3.30139L139.304 10.276L131.921 10.7555C131.511 10.7823 131.118 10.9322 130.794 11.1857C130.47 11.4392 130.23 11.7844 130.105 12.1764C129.973 12.5739 129.964 13.0019 130.079 13.4046C130.194 13.8073 130.428 14.1661 130.749 14.4342L136.429 19.235L134.739 25.8805C134.623 26.3281 134.644 26.8005 134.801 27.2358C134.957 27.671 135.242 28.0489 135.616 28.3199C135.978 28.5832 136.411 28.7315 136.858 28.7454C137.306 28.7593 137.747 28.6383 138.124 28.3981L143.984 24.6862C143.991 24.6803 143.999 24.6764 144.017 24.6862L150.322 28.6803C150.664 28.899 151.064 29.0093 151.47 28.9967C151.876 28.9842 152.269 28.8494 152.597 28.61C152.937 28.3645 153.194 28.0222 153.336 27.6279C153.478 27.2336 153.497 26.8056 153.392 26.4L151.597 19.1403L157.251 14.4342C157.573 14.1661 157.807 13.8073 157.921 13.4046C158.036 13.0019 158.027 12.5739 157.896 12.1764Z" fill="#FED02F"/>
</svg>
